<?xml version="1.0" encoding="UTF-8" standalone="no"?>
<!DOCTYPE svg PUBLIC "-//W3C//DTD SVG 1.1//EN"
 "http://www.w3.org/Graphics/SVG/1.1/DTD/svg11.dtd">
<!-- Generated by graphviz version 2.43.0 (0)
 -->
<!-- Title: Homelab Pages: 1 -->
<svg width="794pt" height="242pt"
 viewBox="0.00 0.00 794.00 242.00" xmlns="http://www.w3.org/2000/svg" xmlns:xlink="http://www.w3.org/1999/xlink">
<g id="graph0" class="graph" transform="scale(1 1) rotate(0) translate(4 238)">
<title>Homelab</title>
<polygon fill="white" stroke="transparent" points="-4,4 -4,-238 790,-238 790,4 -4,4"/>
<g id="clust1" class="cluster">
<title>cluster_vm</title>
<polygon fill="none" stroke="#c9d1d9" points="210,-46 210,-226 778,-226 778,-46 210,-46"/>
<text text-anchor="middle" x="494" y="-213.2" font-family="Arial" font-size="11.00">Ubuntu 24.04 VM &#160;• &#160;192.168.2.60</text>
</g>
<!-- k3s -->
<g id="node1" class="node">
<title>k3s</title>
<path fill="#f6f8fa" stroke="black" d="M364,-91C364,-91 230,-91 230,-91 224,-91 218,-85 218,-79 218,-79 218,-67 218,-67 218,-61 224,-55 230,-55 230,-55 364,-55 364,-55 370,-55 376,-61 376,-67 376,-67 376,-79 376,-79 376,-85 370,-91 364,-91"/>
<text text-anchor="middle" x="297" y="-70.2" font-family="Arial" font-size="11.00">k3s (API, kubelet, containerd)</text>
</g>
<!-- traefik -->
<g id="node2" class="node">
<title>traefik</title>
<path fill="#f6f8fa" stroke="black" d="M550,-90C550,-90 487,-90 487,-90 481,-90 475,-84 475,-78 475,-78 475,-66 475,-66 475,-60 481,-54 487,-54 487,-54 550,-54 550,-54 556,-54 562,-60 562,-66 562,-66 562,-78 562,-78 562,-84 556,-90 550,-90"/>
<text text-anchor="middle" x="518.5" y="-69.2" font-family="Arial" font-size="11.00">Traefik Ingress</text>
</g>
<!-- k3s&#45;&gt;traefik -->
<g id="edge1" class="edge">
<title>k3s&#45;&gt;traefik</title>
<path fill="none" stroke="black" d="M376.01,-72.64C405.38,-72.51 438.07,-72.36 464.62,-72.24"/>
<polygon fill="black" stroke="black" points="464.86,-75.74 474.85,-72.19 464.83,-68.74 464.86,-75.74"/>
</g>
<!-- argocd -->
<g id="node3" class="node">
<title>argocd</title>
<path fill="#f6f8fa" stroke="black" d="M745.5,-90C745.5,-90 710.5,-90 710.5,-90 704.5,-90 698.5,-84 698.5,-78 698.5,-78 698.5,-66 698.5,-66 698.5,-60 704.5,-54 710.5,-54 710.5,-54 745.5,-54 745.5,-54 751.5,-54 757.5,-60 757.5,-66 757.5,-66 757.5,-78 757.5,-78 757.5,-84 751.5,-90 745.5,-90"/>
<text text-anchor="middle" x="728" y="-69.2" font-family="Arial" font-size="11.00">Argo CD</text>
</g>
<!-- traefik&#45;&gt;argocd -->
<g id="edge2" class="edge">
<title>traefik&#45;&gt;argocd</title>
<path fill="none" stroke="black" d="M562.24,-72C599.28,-72 652.4,-72 688.23,-72"/>
<polygon fill="black" stroke="black" points="688.3,-75.5 698.3,-72 688.3,-68.5 688.3,-75.5"/>
<text text-anchor="middle" x="624" y="-75" font-family="Arial" font-size="10.00">Host: argocd.pizza</text>
</g>
<!-- grafana -->
<g id="node4" class="node">
<title>grafana</title>
<path fill="#f6f8fa" stroke="black" d="M744,-198C744,-198 712,-198 712,-198 706,-198 700,-192 700,-186 700,-186 700,-174 700,-174 700,-168 706,-162 712,-162 712,-162 744,-162 744,-162 750,-162 756,-168 756,-174 756,-174 756,-186 756,-186 756,-192 750,-198 744,-198"/>
<text text-anchor="middle" x="728" y="-177.2" font-family="Arial" font-size="11.00">Grafana</text>
</g>
<!-- traefik&#45;&gt;grafana -->
<g id="edge3" class="edge">
<title>traefik&#45;&gt;grafana</title>
<path fill="none" stroke="black" d="M551.04,-90.29C554.88,-93.02 558.63,-95.95 562,-99 571.62,-107.72 569.08,-114.99 580,-122 613.84,-143.72 630.92,-127.45 668,-143 673.08,-145.13 682.02,-150.43 691.42,-156.38"/>
<polygon fill="black" stroke="black" points="689.79,-159.49 700.09,-161.94 693.57,-153.6 689.79,-159.49"/>
<text text-anchor="middle" x="624" y="-146" font-family="Arial" font-size="10.00">Host: grafana.pizza</text>
</g>
<!-- whoami -->
<g id="node8" class="node">
<title>whoami</title>
<path fill="#f6f8fa" stroke="black" d="M758,-144C758,-144 698,-144 698,-144 692,-144 686,-138 686,-132 686,-132 686,-120 686,-120 686,-114 692,-108 698,-108 698,-108 758,-108 758,-108 764,-108 770,-114 770,-120 770,-120 770,-132 770,-132 770,-138 764,-144 758,-144"/>
<text text-anchor="middle" x="728" y="-123.2" font-family="Arial" font-size="11.00">whoami demo</text>
</g>
<!-- traefik&#45;&gt;whoami -->
<g id="edge4" class="edge">
<title>traefik&#45;&gt;whoami</title>
<path fill="none" stroke="black" d="M562.24,-83.12C595.18,-91.69 640.83,-103.58 675.73,-112.66"/>
<polygon fill="black" stroke="black" points="675.17,-116.13 685.73,-115.26 676.93,-109.35 675.17,-116.13"/>
<text text-anchor="middle" x="624" y="-113" font-family="Arial" font-size="10.00">Host: whoami.pizza</text>
</g>
<!-- prom -->
<g id="node5" class="node">
<title>prom</title>
<path fill="#f6f8fa" stroke="black" d="M544,-144C544,-144 493,-144 493,-144 487,-144 481,-138 481,-132 481,-132 481,-120 481,-120 481,-114 487,-108 493,-108 493,-108 544,-108 544,-108 550,-108 556,-114 556,-120 556,-120 556,-132 556,-132 556,-138 550,-144 544,-144"/>
<text text-anchor="middle" x="518.5" y="-123.2" font-family="Arial" font-size="11.00">Prometheus</text>
</g>
<!-- prom&#45;&gt;grafana -->
<g id="edge6" class="edge">
<title>prom&#45;&gt;grafana</title>
<path fill="none" stroke="black" d="M550.08,-144.06C559.42,-148.91 569.9,-153.72 580,-157 616.26,-168.79 659.57,-174.63 689.75,-177.46"/>
<polygon fill="black" stroke="black" points="689.58,-180.96 699.85,-178.34 690.19,-173.99 689.58,-180.96"/>
<text text-anchor="middle" x="624" y="-177" font-family="Arial" font-size="10.00">metrics</text>
</g>
<!-- loki -->
<g id="node6" class="node">
<title>loki</title>
<path fill="#f6f8fa" stroke="black" d="M533.5,-198C533.5,-198 503.5,-198 503.5,-198 497.5,-198 491.5,-192 491.5,-186 491.5,-186 491.5,-174 491.5,-174 491.5,-168 497.5,-162 503.5,-162 503.5,-162 533.5,-162 533.5,-162 539.5,-162 545.5,-168 545.5,-174 545.5,-174 545.5,-186 545.5,-186 545.5,-192 539.5,-198 533.5,-198"/>
<text text-anchor="middle" x="518.5" y="-177.2" font-family="Arial" font-size="11.00">Loki</text>
</g>
<!-- promtail -->
<g id="node7" class="node">
<title>promtail</title>
<path fill="#f6f8fa" stroke="black" d="M347.5,-198C347.5,-198 246.5,-198 246.5,-198 240.5,-198 234.5,-192 234.5,-186 234.5,-186 234.5,-174 234.5,-174 234.5,-168 240.5,-162 246.5,-162 246.5,-162 347.5,-162 347.5,-162 353.5,-162 359.5,-168 359.5,-174 359.5,-174 359.5,-186 359.5,-186 359.5,-192 353.5,-198 347.5,-198"/>
<text text-anchor="middle" x="297" y="-177.2" font-family="Arial" font-size="11.00">Promtail (DaemonSet)</text>
</g>
<!-- promtail&#45;&gt;loki -->
<g id="edge5" class="edge">
<title>promtail&#45;&gt;loki</title>
<path fill="none" stroke="black" d="M359.73,-180C398.97,-180 448.42,-180 481.4,-180"/>
<polygon fill="black" stroke="black" points="481.49,-183.5 491.49,-180 481.49,-176.5 481.49,-183.5"/>
<text text-anchor="middle" x="425.5" y="-183" font-family="Arial" font-size="10.00">logs</text>
</g>
<!-- client -->
<g id="node9" class="node">
<title>client</title>
<ellipse fill="#f6f8fa" stroke="black" cx="297" cy="-19" rx="44.5" ry="18"/>
<text text-anchor="middle" x="297" y="-16.2" font-family="Arial" font-size="11.00">Workstation</text>
</g>
<!-- client&#45;&gt;traefik -->
<g id="edge8" class="edge">
<title>client&#45;&gt;traefik</title>
<path fill="none" stroke="black" d="M335.93,-27.97C368.16,-35.61 415.64,-46.93 457,-57 459.62,-57.64 462.3,-58.29 465.01,-58.96"/>
<polygon fill="black" stroke="black" points="464.33,-62.39 474.87,-61.38 466,-55.6 464.33,-62.39"/>
<text text-anchor="middle" x="425.5" y="-60" font-family="Arial" font-size="10.00">HTTP/HTTPS</text>
</g>
<!-- dns -->
<g id="node10" class="node">
<title>dns</title>
<path fill="none" stroke="black" stroke-dasharray="5,2" d="M100,-37C100,-37 12,-37 12,-37 6,-37 0,-31 0,-25 0,-25 0,-13 0,-13 0,-7 6,-1 12,-1 12,-1 100,-1 100,-1 106,-1 112,-7 112,-13 112,-13 112,-25 112,-25 112,-31 106,-37 100,-37"/>
<text text-anchor="middle" x="56" y="-16.2" font-family="Arial" font-size="11.00">Pi&#45;hole or /etc/hosts</text>
</g>
<!-- dns&#45;&gt;client -->
<g id="edge7" class="edge">
<title>dns&#45;&gt;client</title>
<path fill="none" stroke="black" d="M112.13,-19C151.23,-19 203.44,-19 242.24,-19"/>
<polygon fill="black" stroke="black" points="242.3,-22.5 252.3,-19 242.3,-15.5 242.3,-22.5"/>
<text text-anchor="middle" x="165" y="-33" font-family="Arial" font-size="10.00">DNS A records</text>
<text text-anchor="middle" x="165" y="-22" font-family="Arial" font-size="10.00">→ 192.168.2.60</text>
</g>
<!-- github -->
<g id="node11" class="node">
<title>github</title>
<path fill="none" stroke="black" stroke-dasharray="5,2" d="M546.5,-36C546.5,-36 490.5,-36 490.5,-36 484.5,-36 478.5,-30 478.5,-24 478.5,-24 478.5,-12 478.5,-12 478.5,-6 484.5,0 490.5,0 490.5,0 546.5,0 546.5,0 552.5,0 558.5,-6 558.5,-12 558.5,-12 558.5,-24 558.5,-24 558.5,-30 552.5,-36 546.5,-36"/>
<text text-anchor="middle" x="518.5" y="-21.2" font-family="Arial" font-size="11.00">GitHub Repo</text>
<text text-anchor="middle" x="518.5" y="-9.2" font-family="Arial" font-size="11.00">(GitOps)</text>
</g>
<!-- github&#45;&gt;argocd -->
<g id="edge9" class="edge">
<title>github&#45;&gt;argocd</title>
<path fill="none" stroke="black" d="M558.53,-28.16C595.77,-37.85 651.52,-52.36 688.56,-62"/>
<polygon fill="black" stroke="black" points="687.92,-65.45 698.48,-64.58 689.68,-58.67 687.92,-65.45"/>
<text text-anchor="middle" x="624" y="-59" font-family="Arial" font-size="10.00">sync</text>
</g>
</g>
</svg>
